<svg version="1.1" xmlns="http://www.w3.org/2000/svg" viewBox="0 0 350 30" width="350" height="30" >
<g id="Monogram">
	<path id="B" fill="#FFFFFF" d="M23.38,12.602c1.076-0.454,1.621-1.369,1.621-2.722c0-2.292-1.48-3.228-5.109-3.228h-8.195
		l-0.124,0.02l-0.016,0.103c-0.011,0.07,0.021,0.135,0.078,0.162l0.034,0.011c0.361,0.079,0.525,0.123,0.811,0.262
		c0.155,0.079,0.18,0.212,0.18,0.567l-0.002,10.522c0,0.354-0.027,0.493-0.18,0.57c-0.299,0.144-0.467,0.189-0.815,0.266
		l-0.121,0.048l0.009,0.113c0.006,0.078,0.068,0.136,0.144,0.136h8.512c4.316,0,5.222-2.05,5.222-3.768
		C25.428,14.084,24.74,13.056,23.38,12.602z M18.756,11.754h-1.853v-2.49h1.801c1.239,0,1.868,0.187,1.868,1.212
		C20.571,11.311,19.943,11.754,18.756,11.754z M20.797,15.351c0,0.939-0.727,1.415-2.162,1.415h-1.732v-2.829h1.546
		C19.55,13.936,20.797,13.936,20.797,15.351z"/>
	<path id="Y" fill="#FFFFFF" d="M41.524,6.653h-5.896l-0.129,0.021l-0.011,0.11c-0.006,0.059,0.02,0.113,0.063,0.143l0.026,0.026
		h0.051c0.124,0,0.251,0.006,0.326,0.084c0.055,0.058,0.081,0.16,0.075,0.302c-0.01,0.264-1.165,1.993-1.785,2.921
		c-0.256,0.385-0.472,0.708-0.602,0.914c-0.138-0.208-0.299-0.445-0.469-0.697c-0.755-1.114-1.897-2.8-1.907-3.141
		c-0.005-0.107,0.023-0.19,0.083-0.253c0.079-0.084,0.219-0.131,0.386-0.131l0.048-0.002l0.025-0.018
		c0.05-0.029,0.077-0.089,0.069-0.154l-0.035-0.127h-6.257l-0.123,0.02l-0.017,0.105c-0.011,0.074,0.025,0.141,0.086,0.165
		l0.031,0.01c0.241,0.046,0.361,0.071,0.662,0.217c0.026,0.014,0.102,0.063,0.129,0.088c0.183,0.153,0.326,0.322,0.562,0.674
		l4.315,6.391l0.001,3.982c0,0.352-0.028,0.49-0.18,0.569c-0.296,0.141-0.464,0.19-0.817,0.267l-0.123,0.046l0.009,0.112
		c0.007,0.079,0.068,0.137,0.144,0.137h6.671c0.076,0,0.137-0.059,0.143-0.138c0.005-0.058-0.021-0.111-0.074-0.139l0.001-0.002
		l-0.043-0.018c-0.353-0.076-0.519-0.124-0.812-0.265c-0.154-0.078-0.181-0.216-0.181-0.567v-3.96l4.323-6.413
		c0.238-0.354,0.379-0.524,0.562-0.677c0.031-0.026,0.098-0.084,0.14-0.111c0.164-0.105,0.245-0.149,0.451-0.195l0.035-0.014
		c0.055-0.027,0.087-0.092,0.077-0.16L41.524,6.653z"/>
	<path id="U" fill="#FFFFFF" d="M57.463,6.653h-6.435l-0.128,0.023l-0.015,0.107c-0.009,0.077,0.033,0.145,0.113,0.166
		c0.36,0.078,0.524,0.122,0.81,0.262c0.156,0.081,0.184,0.218,0.184,0.566v6.326c0,1.498-0.897,2.426-2.343,2.426
		c-1.447,0-2.345-0.93-2.345-2.426l0.001-6.323c0-0.35,0.027-0.488,0.18-0.566c0.293-0.146,0.457-0.188,0.786-0.264
		c0.021,0,0.043-0.005,0.062-0.016l0.088-0.024l-0.005-0.117c-0.005-0.081-0.067-0.141-0.145-0.141h-5.976l-0.129,0.023
		l-0.014,0.109c-0.007,0.062,0.02,0.12,0.068,0.148l0.048,0.019c0.184,0.043,0.303,0.102,0.439,0.219
		c0.155,0.129,0.205,0.278,0.205,0.61v6.218c0,4.929,4.222,5.664,6.739,5.664c2.516,0,6.737-0.735,6.737-5.664V7.78
		c0-0.347,0.027-0.485,0.179-0.562c0.292-0.145,0.457-0.187,0.79-0.264l0.049-0.002l0.024-0.02c0.049-0.029,0.076-0.088,0.067-0.153
		L57.463,6.653z"/>
</g>
<g id="Logotype">
	<g id="Brigham">
		<path id="B_1_" fill="#FFFFFF" d="M77.012,18.519c-0.322,0-0.566-0.008-0.793-0.014c-0.277-0.01-0.478-0.017-0.728-0.017
			c-0.247,0-0.518,0.008-0.802,0.014l-0.117,0.003c-0.311,0.008-0.633,0.014-0.956,0.014c-0.112,0-0.239-0.079-0.258-0.25
			c-0.016-0.146,0.057-0.313,0.225-0.347c0.565-0.057,0.889-0.101,1.028-0.182c0.193-0.133,0.193-2.408,0.193-3.156v-2.155
			c0-0.745,0-3.014-0.189-3.155c-0.143-0.083-0.478-0.129-1.007-0.18c-0.175-0.042-0.271-0.189-0.249-0.36
			c0.02-0.167,0.148-0.245,0.257-0.245c0.323,0,0.646,0.008,0.956,0.015c0.374,0.009,0.66,0.016,0.92,0.016
			c0.249,0,0.448-0.007,0.654-0.013c0.266-0.009,0.519-0.018,0.868-0.018c2.226,0,3.034,1.391,3.034,2.325
			c0,0.79-0.43,1.511-1.217,2.051c1.341,0.451,2.104,1.383,2.104,2.586C80.933,16.867,79.905,18.519,77.012,18.519z M76.192,13.512
			c-0.017,0.344-0.019,1.229-0.019,1.896c0,1.895,0.126,2.159,0.132,2.168c0.042,0.038,0.417,0.175,1.131,0.175
			c1.172,0,1.961-0.775,1.961-1.928c0-0.693-0.252-1.28-0.726-1.699c-0.46-0.404-1.112-0.627-1.838-0.627
			C76.514,13.498,76.312,13.504,76.192,13.512z M76.194,12.726c0.118,0.015,0.354,0.033,0.802,0.033
			c0.995,0,1.543-0.586,1.543-1.649c0-1.226-0.785-1.868-1.56-1.868c-0.43,0-0.742,0.049-0.814,0.074
			c0.028,0.074,0.008,0.857,0.008,2.254C76.174,12.27,76.185,12.584,76.194,12.726z"/>
		<path id="R" fill="#FFFFFF" d="M84.98,18.518c-0.112,0-0.24-0.079-0.259-0.252c-0.015-0.146,0.058-0.312,0.225-0.346
			c0.534-0.057,0.807-0.098,0.949-0.181c0.132-0.114,0.2-1.175,0.2-3.157v-2.156c0-1.983-0.067-3.046-0.201-3.16
			c-0.13-0.075-0.363-0.12-0.923-0.175C84.795,9.05,84.7,8.904,84.721,8.733c0.022-0.168,0.149-0.246,0.258-0.246
			c0.34,0,0.668,0.008,0.982,0.016c0.285,0.008,0.552,0.011,0.818,0.011c0.265,0,0.532-0.003,0.813-0.011
			c0.311-0.008,0.635-0.016,0.975-0.016c2.332,0,3.376,1.294,3.376,2.577c0,1.374-0.892,2.266-1.68,2.787
			c1.868,2.762,3.042,3.943,3.92,3.943c0.008,0,0.015,0,0.023,0c0.133,0,0.293-0.001,0.392-0.013H94.6
			c0.158,0,0.269,0.098,0.295,0.25c0.024,0.14-0.023,0.316-0.18,0.37c-0.348,0.072-0.576,0.084-0.931,0.084
			c-0.938,0-1.412-0.126-2.032-0.541c-0.741-0.506-1.51-1.521-2.737-3.608c-0.262,0.006-0.506,0.008-0.739,0.008
			c-0.295,0-0.567-0.005-0.823-0.014v0.249c0,2.003,0.069,3.065,0.205,3.154c0.115,0.061,0.435,0.096,0.84,0.141l0.351,0.039
			c0.188,0.032,0.272,0.201,0.259,0.346c-0.013,0.148-0.121,0.255-0.258,0.255h-3.87V18.518z M87.504,13.521
			c0.051,0,0.458,0.08,1.196,0.08c1.12,0,1.707-0.994,1.707-1.974c0-1.132-0.487-2.341-1.853-2.341
			c-0.484,0-0.942,0.063-1.043,0.094c0.046,0.027-0.059,0.865-0.059,3.047c0,0.909,0.036,1.069,0.048,1.095
			C87.5,13.521,87.502,13.521,87.504,13.521z"/>
		<path id="I" fill="#FFFFFF" d="M97.024,18.519c-0.117,0-0.244-0.088-0.257-0.255c-0.011-0.143,0.073-0.314,0.252-0.345
			c0.423-0.043,0.896-0.092,1.045-0.18c0.198-0.129,0.198-2.407,0.198-3.156v-2.155c0-0.745,0-3.017-0.191-3.155
			c-0.164-0.096-0.689-0.147-1.035-0.18c-0.197-0.038-0.28-0.207-0.266-0.355c0.016-0.164,0.14-0.249,0.256-0.249h3.842
			c0.109,0,0.236,0.076,0.257,0.245c0.017,0.142-0.055,0.314-0.219,0.354c-0.399,0.041-0.924,0.094-1.078,0.183
			c-0.13,0.114-0.197,1.176-0.197,3.158v2.155c0,1.983,0.067,3.046,0.201,3.16c0.142,0.082,0.619,0.131,1.041,0.174
			c0.17,0.035,0.267,0.178,0.25,0.351c-0.018,0.173-0.147,0.252-0.257,0.252h-3.844L97.024,18.519L97.024,18.519z"/>
		<path id="G" fill="#FFFFFF" d="M109.99,18.609c-2.952,0-5.354-2.236-5.354-4.987c0-2.594,1.819-5.221,5.296-5.221
			c0.887,0,1.567,0.171,2.063,0.296c0.315,0.08,0.546,0.135,0.715,0.135c0,0,0.129-0.011,0.138-0.011
			c0.253,0,0.356,0.134,0.356,0.265l0.026,0.615c0.023,0.477,0.047,0.994,0.047,1.516c0,0.157-0.134,0.281-0.305,0.281
			c-0.166,0-0.3-0.107-0.326-0.26c-0.04-0.377-0.248-0.807-0.506-1.054c-0.513-0.483-1.441-0.971-2.355-0.971
			c-2.504,0-3.625,2-3.625,3.982c0,2.196,1.519,4.53,4.335,4.53c0.521,0,1.098-0.101,1.527-0.264
			c-0.008-0.818-0.032-2.968-0.139-3.169c-0.094-0.044-0.454-0.091-0.908-0.15c-0.168-0.011-0.262-0.071-0.308-0.151
			c-0.03-0.051-0.046-0.113-0.046-0.173c0-0.187,0.133-0.288,0.259-0.288h3.427c0.151,0,0.264,0.129,0.264,0.3
			c0,0.061-0.015,0.118-0.044,0.167c-0.05,0.084-0.138,0.134-0.234,0.134l-0.126,0.018c-0.421,0.053-0.578,0.074-0.694,0.151
			c-0.064,0.12-0.096,1.173-0.075,3.119v0.264l-0.112,0.066C112.373,18.296,111.174,18.609,109.99,18.609z"/>
		<path id="H" fill="#FFFFFF" d="M125.165,18.519c-0.112,0-0.239-0.079-0.257-0.25c-0.016-0.146,0.057-0.313,0.225-0.347
			c0.584-0.063,0.806-0.105,0.959-0.187c0.084-0.065,0.189-0.668,0.189-3.152v-0.763h-5.288v0.763c0,0.747,0,3.021,0.192,3.155
			c0.138,0.079,0.36,0.121,0.917,0.179c0.189,0.038,0.265,0.206,0.25,0.352c-0.018,0.172-0.146,0.25-0.257,0.25h-3.591
			c-0.112,0-0.239-0.079-0.257-0.25c-0.015-0.146,0.058-0.313,0.226-0.347c0.532-0.057,0.805-0.097,0.949-0.182
			c0.13-0.113,0.197-1.175,0.197-3.156v-2.155c0-1.982-0.067-3.045-0.199-3.16c-0.13-0.075-0.363-0.12-0.922-0.175
			c-0.193-0.046-0.269-0.215-0.25-0.361c0.019-0.166,0.147-0.244,0.255-0.244h3.591c0.109,0,0.237,0.076,0.257,0.245
			c0.017,0.141-0.053,0.313-0.219,0.353c-0.579,0.06-0.806,0.104-0.946,0.183c-0.193,0.133-0.193,2.409-0.193,3.158v0.553h5.288
			v-0.553c0-1.982-0.067-3.045-0.199-3.16c-0.147-0.077-0.373-0.121-0.924-0.175c-0.176-0.042-0.272-0.19-0.249-0.362
			c0.02-0.166,0.147-0.242,0.255-0.242h3.592c0.109,0,0.236,0.076,0.257,0.245c0.017,0.142-0.055,0.313-0.219,0.353
			c-0.587,0.06-0.81,0.104-0.967,0.187c-0.124,0.114-0.189,1.176-0.189,3.154v2.155c0,2.498,0.108,3.096,0.198,3.158
			c0.145,0.075,0.371,0.117,0.926,0.175c0.189,0.038,0.265,0.206,0.25,0.352c-0.018,0.172-0.147,0.25-0.257,0.25L125.165,18.519
			L125.165,18.519z"/>
		<path id="A" fill="#FFFFFF" d="M140.979,17.908c-0.346-0.036-0.519-0.055-0.701-0.163c-0.181-0.117-0.536-0.906-1.461-3.245
			l-0.827-2.157c-0.508-1.286-0.887-2.314-1.35-3.658c-0.04-0.14-0.165-0.233-0.311-0.233c-0.138,0-0.258,0.083-0.32,0.229
			c-0.299,0.972-0.7,2.056-1.103,3.147l-0.974,2.676c-0.726,1.983-1.196,3.059-1.4,3.202c-0.173,0.127-0.394,0.167-0.832,0.213
			c-0.148,0.026-0.247,0.16-0.234,0.32c0.014,0.163,0.129,0.28,0.273,0.28h2.775c0.139,0,0.248-0.109,0.265-0.266
			c0.017-0.167-0.075-0.302-0.244-0.336c-0.312-0.03-0.699-0.066-0.739-0.13c0-0.363,0.543-1.878,0.966-3.022h2.694
			c0.555,1.39,1.113,2.825,1.131,3.053c-0.058,0.044-0.376,0.074-0.529,0.088l-0.14,0.015c-0.145,0.033-0.232,0.17-0.215,0.335
			c0.016,0.156,0.125,0.264,0.264,0.264h3.074c0.14,0,0.249-0.109,0.265-0.265C141.323,18.088,141.229,17.951,140.979,17.908z
			 M135.057,13.941l1.036-2.873l1.057,2.873H135.057z"/>
		<path id="M" fill="#FFFFFF" d="M149.971,18.591c-0.106,0-0.204-0.048-0.266-0.131l-3.297-6.451l-0.176,2.519
			c-0.239,2.647-0.106,3.168-0.006,3.243c0.088,0.067,0.466,0.109,0.717,0.137l0.116,0.013c0.164,0.034,0.26,0.171,0.242,0.337
			c-0.017,0.157-0.126,0.265-0.266,0.265h-3.119c-0.113,0-0.236-0.082-0.252-0.239c-0.016-0.149,0.069-0.324,0.238-0.36
			c0.423-0.044,0.848-0.088,0.967-0.199c0.091-0.077,0.264-0.585,0.445-3.155l0.197-2.932c0.059-0.983,0.12-1.987,0.143-2.892
			c0.028-0.18,0.165-0.29,0.34-0.29c0.126,0,0.233,0.061,0.285,0.163l3.938,7.793l3.641-7.787c0.022-0.091,0.14-0.168,0.281-0.168
			c0.187,0,0.332,0.13,0.332,0.296c0.073,1.246,0.145,2.297,0.28,3.657l0.221,2.153c0.188,1.678,0.354,3.076,0.496,3.174
			c0.153,0.082,0.376,0.125,0.954,0.183c0.191,0.04,0.286,0.225,0.267,0.374c-0.014,0.132-0.118,0.228-0.247,0.228l-3.458-0.001
			c-0.141,0-0.258-0.12-0.272-0.279c-0.014-0.16,0.084-0.294,0.232-0.321l0.197-0.02c0.242-0.026,0.501-0.053,0.57-0.109
			c0.071-0.102,0.101-0.74-0.17-3.181l-0.262-2.652l-3.045,6.477C150.188,18.534,150.089,18.591,149.971,18.591z"/>
	</g>
	<g id="Young">
		<path id="Y_1_" fill="#FFFFFF" d="M167.954,18.518c-0.116,0-0.241-0.087-0.258-0.253c-0.015-0.145,0.058-0.311,0.228-0.345
			c0.438-0.047,0.923-0.097,1.069-0.182c0.09-0.063,0.198-0.665,0.198-3.172v-0.398c-0.312-0.521-0.633-1.057-1.014-1.684
			l-1.208-1.92c-0.634-1.008-0.843-1.344-0.947-1.379c-0.173-0.072-0.311-0.079-0.562-0.092l-0.252-0.015
			c-0.076,0-0.159-0.046-0.208-0.12l-0.018-0.028l-0.028-0.139c0-0.155,0.101-0.314,0.272-0.314h3.16
			c0.153,0,0.267,0.133,0.267,0.308c0,0.191-0.139,0.294-0.267,0.294l-0.16,0.007c-0.126,0.005-0.315,0.011-0.44,0.026
			c0.126,0.302,0.578,1.118,1.054,1.976l1.262,2.132l1.428-2.388c0.895-1.424,0.931-1.69,0.929-1.729
			c-0.007,0.009-0.05,0.013-0.114,0.013c-0.163,0-0.462-0.023-0.631-0.035c-0.14-0.001-0.272-0.11-0.272-0.294
			c0-0.176,0.115-0.31,0.269-0.31h2.807c0.153,0,0.267,0.133,0.267,0.31c0,0.19-0.138,0.294-0.267,0.294
			c-0.438,0.032-0.693,0.05-0.863,0.116c-0.099,0.051-0.464,0.606-1.292,1.975l-0.841,1.386c-0.335,0.543-0.669,1.088-0.974,1.612
			l0.015,0.399c0,1.992,0.068,3.061,0.201,3.174c0.145,0.083,0.642,0.134,1.043,0.175c0.17,0.035,0.267,0.179,0.249,0.352
			c-0.018,0.172-0.147,0.249-0.257,0.249H167.954z"/>
		<path id="O" fill="#FFFFFF" d="M182.12,18.609c-2.828,0-5.043-2.191-5.043-4.987c0-3.224,2.726-5.221,5.25-5.221
			c2.828,0,5.043,2.19,5.043,4.985c0,1.321-0.524,2.636-1.438,3.606C184.952,18.035,183.597,18.609,182.12,18.609z M182.047,9.272
			c-2.384,0-3.451,1.97-3.451,3.922c0,2.194,1.535,4.545,3.822,4.545c2.373,0,3.435-1.97,3.435-3.923
			C185.851,11.621,184.322,9.272,182.047,9.272z"/>
		<path id="U_1_" fill="#FFFFFF" d="M195.615,18.61c-2.316,0-3.935-1.508-3.935-3.667V12.43c0-1.982-0.067-3.046-0.199-3.16
			c-0.133-0.076-0.368-0.121-0.924-0.175c-0.175-0.043-0.271-0.19-0.248-0.362c0.022-0.166,0.148-0.242,0.256-0.242h3.663
			c0.137,0,0.248,0.109,0.264,0.26c0.017,0.166-0.08,0.31-0.23,0.34c-0.541,0.055-0.856,0.1-0.998,0.181
			c-0.193,0.133-0.193,2.409-0.193,3.158v2.244c0,1.763,1.132,2.903,2.886,2.903c1.558,0,2.564-1.077,2.564-2.742V12.43
			c0-2.549-0.109-3.059-0.174-3.137c-0.125-0.115-0.592-0.16-0.966-0.198c-0.166-0.033-0.264-0.167-0.249-0.329
			c0.016-0.159,0.131-0.275,0.272-0.275h3.147c0.138,0,0.247,0.107,0.265,0.26c0.019,0.164-0.067,0.303-0.211,0.339
			c-0.549,0.055-0.823,0.098-0.936,0.2c-0.066,0.079-0.179,0.592-0.179,3.14v2.479C199.491,16.703,198.133,18.61,195.615,18.61z"/>
		<path id="N" fill="#FFFFFF" d="M213.702,18.591c-0.114,0-0.22-0.04-0.289-0.112l-6.929-7.388l0.05,3.487
			c0.023,1.934,0.129,2.917,0.336,3.096c0.053,0.035,0.538,0.181,0.936,0.196c0.126,0,0.258,0.108,0.258,0.314
			c0,0.197-0.11,0.335-0.267,0.335h-3.395c-0.12,0-0.248-0.088-0.267-0.286c-0.017-0.182,0.074-0.329,0.223-0.359
			c0.668-0.069,0.907-0.165,0.991-0.233c0.125-0.134,0.187-1.195,0.166-3.058l-0.038-2.864c-0.011-1.028-0.023-2.066-0.08-2.989
			c0-0.188,0.155-0.314,0.378-0.314c0.141,0,0.255,0.058,0.313,0.158l6.908,7.386l-0.049-3.531c-0.015-2.855-0.232-3.025-0.314-3.09
			c-0.125-0.094-0.465-0.162-1.043-0.204c-0.183-0.043-0.27-0.188-0.246-0.379c0.025-0.186,0.149-0.269,0.263-0.269h3.427
			c0.117,0,0.245,0.085,0.265,0.275c0.022,0.18-0.065,0.332-0.213,0.368c-0.524,0.055-0.81,0.126-0.941,0.233
			c-0.126,0.127-0.192,1.188-0.183,3.061l0.022,3.153c0.006,0.863,0.011,1.84,0.066,2.697c0.014,0.042-0.007,0.126-0.057,0.19
			C213.905,18.58,213.76,18.591,213.702,18.591z"/>
		<path id="G_1_" fill="#FFFFFF" d="M224.257,18.609c-2.951,0-5.352-2.236-5.352-4.987c0-2.594,1.819-5.221,5.296-5.221
			c0.892,0,1.572,0.172,2.068,0.297c0.299,0.075,0.542,0.134,0.71,0.134c0,0,0.129-0.013,0.138-0.013
			c0.252,0,0.355,0.134,0.355,0.265l0.026,0.6c0.024,0.475,0.049,0.999,0.049,1.531c0,0.157-0.134,0.281-0.305,0.281
			c-0.164,0-0.297-0.105-0.327-0.256c-0.042-0.382-0.252-0.814-0.509-1.057c-0.512-0.483-1.438-0.971-2.353-0.971
			c-2.505,0-3.627,2-3.627,3.982c0,2.196,1.521,4.53,4.335,4.53c0.519,0,1.097-0.101,1.53-0.264
			c-0.009-0.819-0.034-2.971-0.139-3.17c-0.096-0.043-0.456-0.09-0.913-0.15c-0.167-0.011-0.255-0.064-0.305-0.15
			c-0.031-0.051-0.047-0.114-0.047-0.174c0-0.187,0.133-0.288,0.26-0.288h3.427c0.15,0,0.264,0.129,0.264,0.3
			c0,0.063-0.015,0.122-0.046,0.17c-0.048,0.081-0.135,0.132-0.234,0.132l-0.122,0.017c-0.423,0.053-0.582,0.075-0.698,0.151
			c-0.063,0.121-0.096,1.176-0.076,3.119v0.264l-0.112,0.066C226.64,18.296,225.439,18.609,224.257,18.609z"/>
	</g>
	<g id="University">
		<path fill="#FFFFFF" d="M243.696,18.614c-2.334,0-4.029-1.544-4.029-3.672V12.43c0-0.799,0-2.923-0.179-3.061
			c-0.148-0.087-0.357-0.171-0.932-0.23c-0.206-0.055-0.269-0.24-0.248-0.403c0.026-0.172,0.147-0.248,0.256-0.248h3.828
			c0.112,0,0.233,0.076,0.256,0.248c0.02,0.156-0.036,0.345-0.209,0.394c-0.535,0.06-0.865,0.134-1.024,0.228
			c-0.093,0.066-0.198,0.649-0.198,3.071v2.127c0,1.738,1.131,2.907,2.815,2.907c1.84,0,2.496-1.417,2.496-2.742v-2.292
			c0-1.95-0.063-2.952-0.189-3.066c-0.114-0.093-0.442-0.171-0.97-0.225c-0.178-0.049-0.265-0.204-0.238-0.39
			c0.024-0.179,0.148-0.26,0.262-0.26h3.31c0.145,0,0.254,0.116,0.272,0.289c0.018,0.176-0.072,0.323-0.221,0.357
			c-0.331,0.036-0.769,0.097-0.913,0.228c-0.191,0.17-0.191,2.351-0.191,3.068v2.482C247.649,16.707,246.264,18.614,243.696,18.614z
			"/>
		<path fill="#FFFFFF" d="M261.477,18.599c-0.093,0-0.225-0.018-0.315-0.112l-6.889-7.195l0.051,3.289
			c0.02,1.954,0.122,2.935,0.321,3.089c0.064,0.042,0.529,0.189,0.938,0.207h0.001c0.093,0,0.184,0.059,0.229,0.154l0.011,0.023
			l0.022,0.131c0,0.201-0.113,0.34-0.272,0.34h-3.502c-0.146,0-0.259-0.124-0.273-0.302c-0.015-0.209,0.114-0.324,0.239-0.343
			c0.695-0.073,0.914-0.178,0.981-0.233c0.085-0.085,0.191-0.692,0.171-3.062l-0.038-2.858c-0.013-1.03-0.023-2.071-0.082-2.997
			l-0.002-0.035l0.05-0.133c0.102-0.127,0.278-0.145,0.374-0.145c0.207,0,0.3,0.084,0.341,0.154l6.87,7.198l-0.051-3.336
			c-0.013-2.844-0.233-3.028-0.315-3.096c-0.118-0.089-0.456-0.155-1.025-0.199c-0.178-0.038-0.273-0.182-0.253-0.364
			c0.018-0.171,0.126-0.286,0.27-0.286h3.533c0.142,0,0.252,0.115,0.271,0.286c0.018,0.178-0.071,0.326-0.219,0.36
			c-0.333,0.035-0.775,0.094-0.917,0.226c-0.149,0.13-0.212,1.132-0.192,3.066l0.013,2.156c0,1.257,0,2.555,0.074,3.701
			C261.889,18.434,261.78,18.599,261.477,18.599z"/>
		<path fill="#FFFFFF" d="M266.752,18.526c-0.113,0-0.239-0.082-0.258-0.264c-0.015-0.159,0.049-0.345,0.229-0.38
			c0.753-0.077,0.995-0.184,1.064-0.225c0.201-0.115,0.201-2.34,0.201-3.071V12.43c0-1.931-0.063-2.963-0.187-3.065
			c-0.092-0.053-0.348-0.151-1.057-0.226c-0.207-0.055-0.27-0.247-0.247-0.403c0.023-0.17,0.145-0.246,0.255-0.246h3.992
			c0.114,0,0.242,0.084,0.263,0.27c0.022,0.186-0.071,0.34-0.227,0.376c-0.72,0.079-0.973,0.175-1.062,0.225
			c-0.212,0.126-0.212,2.341-0.212,3.071v2.156c0,0.808,0,2.955,0.205,3.065c0.097,0.057,0.355,0.159,1.04,0.229
			c0.168,0.026,0.272,0.175,0.256,0.365c-0.014,0.193-0.142,0.281-0.264,0.281L266.752,18.526L266.752,18.526z"/>
		<path fill="#FFFFFF" d="M278.74,18.576c-0.259,0-0.426-0.087-0.47-0.242c-0.45-1.259-0.855-2.322-1.398-3.663l-0.87-2.155
			c-1.045-2.523-1.32-3.024-1.509-3.146c-0.173-0.118-0.426-0.186-0.876-0.231c-0.181-0.048-0.265-0.196-0.238-0.389
			c0.027-0.192,0.157-0.262,0.261-0.262h3.475c0.142,0,0.252,0.114,0.271,0.283c0.021,0.179-0.069,0.327-0.22,0.362
			c-0.629,0.073-0.666,0.172-0.667,0.176c0,0.306,0.359,1.326,1.064,3.033l1.4,3.693l1.455-3.69
			c0.618-1.565,0.918-2.534,0.918-2.962c0-0.149-0.364-0.216-0.667-0.246c-0.173-0.038-0.267-0.183-0.248-0.364
			c0.019-0.172,0.129-0.287,0.271-0.287h3.031c0.114,0,0.239,0.082,0.264,0.265c0.024,0.186-0.058,0.337-0.204,0.377
			c-0.459,0.05-0.627,0.122-0.799,0.248c-0.097,0.075-0.362,0.283-1.505,3.136l-1.126,2.839c-0.401,1.019-0.809,2.057-1.131,2.991
			C279.151,18.5,278.986,18.576,278.74,18.576z"/>
		<path fill="#FFFFFF" d="M292.455,18.539c-0.415,0-0.834-0.009-1.288-0.018c-0.538-0.011-1.11-0.023-1.772-0.023
			c-0.634,0-1.056,0.007-1.581,0.015l-0.883,0.013c-0.118,0-0.244-0.082-0.263-0.264c-0.015-0.157,0.049-0.343,0.228-0.378
			c0.604-0.063,0.814-0.146,0.95-0.228c0.198-0.116,0.198-2.34,0.198-3.071v-2.156c0-2.405-0.101-2.995-0.187-3.065
			c-0.143-0.083-0.354-0.166-0.941-0.226c-0.207-0.055-0.269-0.246-0.246-0.402c0.023-0.171,0.145-0.248,0.256-0.248
			c1.136,0.016,2.845,0.03,3.813,0.03c1.298,0,1.769-0.015,2.188-0.072c0.001,0,0.002,0,0.002,0c0.232,0,0.346,0.148,0.346,0.287
			l-0.031,0.399c-0.032,0.426-0.069,0.908-0.149,1.521l-0.006,0.036l-0.064,0.112c-0.055,0.056-0.133,0.087-0.222,0.087
			c-0.067,0-0.138-0.017-0.195-0.05c-0.099-0.056-0.158-0.153-0.158-0.261c0-0.397-0.058-0.628-0.192-0.774
			c-0.217-0.229-0.694-0.328-1.595-0.328c-0.42,0-0.823,0.008-1.063,0.018c-0.016,0.272-0.026,0.785-0.026,1.453v1.917h0.986
			c1.377,0,1.403-0.158,1.461-0.506c0.018-0.074,0.082-0.228,0.321-0.228c0.233,0,0.338,0.133,0.338,0.265l-0.028,0.708
			c-0.025,0.501-0.044,0.899-0.044,1.438c0,0.096-0.066,0.258-0.319,0.258c-0.056,0-0.107-0.008-0.152-0.024
			c-0.139-0.048-0.189-0.16-0.189-0.249c0-0.27-0.074-0.475-0.146-0.536c-0.063-0.064-0.181-0.183-1.254-0.183h-0.972v0.776
			c0,2.357,0.219,2.693,0.263,2.736c0.118,0.133,0.364,0.217,1.196,0.217c0.774,0,1.292-0.132,1.538-0.39
			c0.172-0.2,0.306-0.494,0.417-0.919c0.016-0.12,0.139-0.215,0.287-0.215c0.113,0,0.222,0.05,0.289,0.13
			c0.055,0.069,0.076,0.15,0.063,0.23c-0.046,0.642-0.159,1.505-0.322,1.788C293.141,18.42,292.872,18.539,292.455,18.539z"/>
		<path fill="#FFFFFF" d="M297.799,18.526c-0.118,0-0.246-0.088-0.263-0.286c-0.014-0.188,0.086-0.336,0.245-0.36
			c0.581-0.061,0.785-0.143,0.922-0.225c0.198-0.106,0.198-2.183,0.198-3.071v-2.156c0-0.72,0-2.913-0.18-3.063
			c-0.138-0.079-0.33-0.165-0.931-0.229c-0.175-0.038-0.272-0.188-0.254-0.378c0.021-0.188,0.147-0.272,0.262-0.272
			c0.333,0,0.673,0.008,0.999,0.015c0.329,0.008,0.618,0.015,0.879,0.015c0.259,0,0.53-0.007,0.813-0.014
			c0.332-0.008,0.646-0.016,0.977-0.016c2.381,0,3.465,1.337,3.465,2.579c0,1.094-0.595,2.095-1.681,2.831
			c1.791,2.668,3.004,3.861,3.924,3.861c0.011,0,0.023,0,0.036,0c0.118,0,0.275-0.001,0.359-0.014
			c0.216,0.003,0.279,0.149,0.297,0.237c0.008,0.033,0.066,0.327-0.14,0.421c-0.388,0.081-0.683,0.094-1.043,0.094
			c-0.967,0-1.498-0.137-2.108-0.542c-0.793-0.55-1.592-1.575-2.751-3.535c-0.232,0.008-0.431,0.011-0.625,0.011
			c-0.244,0-0.479-0.006-0.76-0.018v0.172c0,0.728,0,2.944,0.194,3.068c0.219,0.137,0.953,0.204,1.194,0.225
			c0.171,0.032,0.271,0.188,0.254,0.38c-0.018,0.184-0.147,0.266-0.261,0.266L297.799,18.526L297.799,18.526z M300.592,9.531
			c0.014,0-0.153,0.468-0.153,2.899c0,0.366,0.007,0.862,0.061,0.925c0.011,0.008,0.203,0.162,1.099,0.162
			c1.129,0,1.634-0.946,1.634-1.885c0-0.831-0.232-2.226-1.782-2.226C300.995,9.406,300.65,9.496,300.592,9.531L300.592,9.531z"/>
		<path fill="#FFFFFF" d="M312.408,18.599c-1.474,0-2.453-0.755-2.528-1.063c-0.106-0.484-0.117-1.269-0.034-2.102l0.005-0.039
			l0.068-0.124c0.059-0.06,0.149-0.096,0.247-0.096c0.194,0,0.339,0.127,0.339,0.298c0.038,0.46,0.201,0.957,0.415,1.259
			c0.295,0.414,0.826,0.908,1.68,0.908c0.947,0,1.56-0.613,1.56-1.56c0-0.954-0.87-1.548-1.792-2.178
			c-1.053-0.72-2.141-1.465-2.141-2.835c0-1.751,1.48-2.695,2.873-2.695c0.623,0,0.995,0.118,1.264,0.204
			c0.156,0.049,0.285,0.087,0.41,0.087c0.05,0,0.099-0.006,0.15-0.017c0.009,0,0.017,0,0.026,0c0.227,0,0.345,0.117,0.345,0.266
			l0.006,0.521c0.008,0.438,0.015,0.936-0.006,1.485c-0.04,0.172-0.162,0.262-0.328,0.262c-0.036,0-0.106-0.005-0.173-0.038
			c-0.101-0.048-0.163-0.145-0.163-0.252c-0.039-0.412-0.232-0.862-0.479-1.107c-0.298-0.314-0.698-0.478-1.156-0.478
			c-0.805,0-1.325,0.496-1.325,1.263c0,0.744,0.846,1.341,1.743,1.974c1.097,0.774,2.34,1.65,2.34,3.054
			C315.755,17.05,314.581,18.599,312.408,18.599z"/>
		<path fill="#FFFFFF" d="M320.094,18.526c-0.113,0-0.237-0.08-0.256-0.26c-0.015-0.159,0.048-0.346,0.224-0.384
			c0.755-0.079,0.999-0.186,1.07-0.228c0.198-0.116,0.198-2.34,0.198-3.071v-2.156c0-2.405-0.101-2.995-0.187-3.065
			c-0.113-0.065-0.387-0.156-1.06-0.226c-0.208-0.058-0.267-0.252-0.244-0.407c0.023-0.166,0.143-0.241,0.253-0.241h3.993
			c0.115,0,0.241,0.083,0.263,0.269c0.02,0.187-0.073,0.341-0.227,0.377c-0.724,0.079-0.975,0.175-1.063,0.225
			c-0.141,0.088-0.211,1.119-0.211,3.071v2.156c0,0.808,0,2.956,0.204,3.065c0.097,0.057,0.354,0.159,1.041,0.229
			c0.168,0.026,0.271,0.175,0.255,0.365c-0.014,0.193-0.146,0.282-0.263,0.282L320.094,18.526L320.094,18.526z"/>
		<path fill="#FFFFFF" d="M329.994,18.524c-0.085,0-0.236-0.055-0.256-0.262c-0.018-0.195,0.075-0.352,0.228-0.384
			c0.708-0.073,0.974-0.175,1.071-0.229c0.194-0.122,0.194-2.34,0.194-3.068v-3.605c0-0.344,0-1.107-0.03-1.456
			c-0.14-0.009-0.327-0.015-0.541-0.015c-1.371,0-2.073,0.125-2.42,0.433c-0.182,0.156-0.315,0.55-0.369,0.87
			c-0.019,0.115-0.118,0.23-0.296,0.23c-0.063,0-0.129-0.014-0.187-0.04c-0.166-0.076-0.179-0.214-0.179-0.255
			c0.079-0.666,0.175-1.541,0.208-2.084c0-0.149,0.146-0.272,0.332-0.272c0.654,0.106,2.077,0.158,4.242,0.158
			c3.284,0,3.987-0.089,4.241-0.176c0.015,0,0.032-0.001,0.046-0.001c0.237,0,0.346,0.12,0.346,0.275
			c-0.002,0.53-0.026,1.334-0.122,2.155l-0.005,0.038l-0.061,0.105c-0.04,0.041-0.115,0.089-0.246,0.089
			c-0.207,0-0.351-0.118-0.351-0.287c0-0.372-0.079-0.686-0.204-0.819c-0.187-0.189-0.755-0.418-2.392-0.418
			c-0.199,0-0.346,0.006-0.465,0.014c-0.03,0.359-0.03,1.144-0.03,1.457v3.606c0,0.731,0,2.955,0.197,3.068
			c0.097,0.055,0.363,0.156,1.046,0.226c0.172,0.034,0.267,0.188,0.248,0.386c-0.018,0.181-0.14,0.262-0.255,0.262
			C333.986,18.524,329.994,18.524,329.994,18.524z"/>
		<path fill="#FFFFFF" d="M342.428,18.526c-0.113,0-0.24-0.083-0.26-0.266c-0.014-0.158,0.051-0.343,0.229-0.378
			c0.716-0.072,0.974-0.173,1.068-0.226c0.196-0.118,0.196-2.35,0.196-3.083v-0.398c-0.296-0.501-0.608-1.019-1.014-1.687
			l-0.829-1.309c-1.043-1.667-1.258-1.859-1.416-1.926c-0.216-0.074-0.405-0.115-0.809-0.131l0,0c-0.122,0-0.257-0.099-0.257-0.314
			c0-0.197,0.109-0.333,0.265-0.333h3.327c0.159,0,0.273,0.142,0.273,0.339v0.026l-0.034,0.132
			c-0.046,0.092-0.138,0.151-0.239,0.151c-0.404,0.019-0.541,0.082-0.576,0.101c0.003-0.001,0.007-0.002,0.01-0.002
			c0.065,0,0.209,0.315,1.023,1.576l1.295,2.193l1.321-2.161c0.814-1.291,0.834-1.57,0.829-1.615c0,0-0.001,0-0.002,0
			c-0.027,0-0.207-0.058-0.65-0.093h-0.001c-0.085,0-0.175-0.059-0.22-0.151l-0.011-0.024l-0.023-0.132
			c0-0.198,0.114-0.341,0.273-0.341h3.031c0.159,0,0.273,0.143,0.273,0.34v0.028l-0.036,0.132c-0.043,0.089-0.135,0.147-0.238,0.147
			c-0.382,0.027-0.643,0.077-0.842,0.162c-0.093,0.047-0.355,0.173-1.386,1.889l-0.801,1.315c-0.335,0.544-0.689,1.121-1.013,1.681
			l0.014,0.403c0,0.733,0,2.965,0.196,3.083c0.097,0.052,0.365,0.155,1.046,0.223c0.168,0.027,0.271,0.179,0.255,0.368
			c-0.016,0.193-0.143,0.28-0.263,0.28h-4.003L342.428,18.526L342.428,18.526z"/>
	</g>
</g>
</svg>
